<svg width="35" height="35" viewBox="0 0 35 35" fill="none" xmlns="http://www.w3.org/2000/svg">
<path d="M32.7089 13.0842H30.5856C30.0247 13.0742 29.4896 12.8468 29.0932 12.4499C28.6967 12.0531 28.4698 11.5178 28.4603 10.9569C28.4601 9.5178 28.1764 8.0928 27.6254 6.76331C27.0744 5.43381 26.267 4.22586 25.2492 3.20841C24.2314 2.19096 23.0232 1.38395 21.6935 0.833452C20.3639 0.282952 18.9388 -0.000255198 17.4997 1.72549e-07H10.9587C8.0526 1.26804e-07 5.26551 1.15433 3.21041 3.2091C1.15532 5.26387 0.00051563 8.0508 0 10.9569V24.0431C0.00051563 26.9492 1.15532 29.7361 3.21041 31.7909C5.26551 33.8457 8.0526 35 10.9587 35H24.0426C26.9487 34.9995 29.7356 33.8447 31.7903 31.7895C33.8451 29.7344 34.9994 26.9473 34.9994 24.0411V15.3728C35.0066 15.0701 34.9522 14.7691 34.8396 14.4881C34.7271 14.207 34.5586 13.9518 34.3444 13.7378C34.1302 13.5238 33.8748 13.3555 33.5937 13.2431C33.3125 13.1308 33.0115 13.0767 32.7089 13.0842ZM10.7954 8.83167H18.6449C19.7902 8.83167 20.7702 9.81167 20.7702 10.9569C20.7702 12.1022 19.7902 13.0861 18.6469 13.0861H10.7915C10.2306 13.0761 9.69555 12.8487 9.29908 12.4519C8.90261 12.055 8.67572 11.5198 8.66623 10.9589C8.66623 9.81361 9.64816 8.83361 10.7915 8.83361M24.2021 26.1703H10.9587C10.3975 26.1608 9.86194 25.9336 9.46506 25.5367C9.06817 25.1398 8.84101 24.6043 8.83151 24.0431C8.83151 22.8978 9.81343 21.9178 10.9587 21.9178H24.206C25.3493 21.9178 26.3312 22.8978 26.3312 24.0431C26.3312 25.1883 25.3493 26.1703 24.206 26.1703" fill="white"/>
</svg>
