<svg width="45" height="42" viewBox="0 0 45 42" fill="none" xmlns="http://www.w3.org/2000/svg">
<path d="M45 13.9722C45 28.6866 24.1493 40.5969 23.2614 41.0888C23.0273 41.2205 22.7657 41.2895 22.5 41.2895C22.2343 41.2895 21.9726 41.2205 21.7386 41.0888C20.8507 40.5969 0 28.6866 0 13.9722C0.00372202 10.5169 1.31717 7.20423 3.6522 4.76096C5.98723 2.31769 9.15313 0.943348 12.4554 0.939453C16.6038 0.939453 20.2359 2.80608 22.5 5.96127C24.7641 2.80608 28.3962 0.939453 32.5446 0.939453C35.8469 0.943348 39.0128 2.31769 41.3478 4.76096C43.6828 7.20423 44.9963 10.5169 45 13.9722Z" fill="white"/>
</svg>
