<svg width="23" height="19" viewBox="0 0 23 19" fill="none" xmlns="http://www.w3.org/2000/svg">
<path d="M20.7 16.2427H18.4V6.62202L11.5 10.7452L4.6 6.62202V16.2427H2.3V3.04862H3.68L11.5 7.72153L19.32 3.04862H20.7M20.7 0.849609H2.3C1.0235 0.849609 0 1.82817 0 3.04862V16.2427C0 16.8259 0.242321 17.3853 0.673654 17.7976C1.10499 18.21 1.69 18.4417 2.3 18.4417H20.7C21.31 18.4417 21.895 18.21 22.3263 17.7976C22.7577 17.3853 23 16.8259 23 16.2427V3.04862C23 2.46541 22.7577 1.90608 22.3263 1.49369C21.895 1.08129 21.31 0.849609 20.7 0.849609Z" fill="#AAAAAA"/>
</svg>
