<svg width="23" height="24" viewBox="0 0 23 24" fill="none" xmlns="http://www.w3.org/2000/svg">
<path d="M6.67 0.800781H16.33C20.01 0.800781 23 3.72303 23 7.31964V16.7607C23 18.4897 22.2973 20.1477 21.0464 21.3703C19.7955 22.5928 18.099 23.2796 16.33 23.2796H6.67C2.99 23.2796 0 20.3574 0 16.7607V7.31964C0 5.59073 0.70273 3.93263 1.9536 2.71011C3.20447 1.48759 4.90101 0.800781 6.67 0.800781ZM6.44 3.04866C5.342 3.04866 4.28898 3.47496 3.51258 4.23376C2.73618 4.99257 2.3 6.02173 2.3 7.09485V16.9855C2.3 19.2222 4.1515 21.0317 6.44 21.0317H16.56C17.658 21.0317 18.711 20.6054 19.4874 19.8466C20.2638 19.0878 20.7 18.0586 20.7 16.9855V7.09485C20.7 4.85821 18.8485 3.04866 16.56 3.04866H6.44ZM17.5375 4.73457C17.9187 4.73457 18.2844 4.88259 18.554 5.14607C18.8235 5.40954 18.975 5.76689 18.975 6.1395C18.975 6.51211 18.8235 6.86946 18.554 7.13293C18.2844 7.39641 17.9187 7.54443 17.5375 7.54443C17.1563 7.54443 16.7906 7.39641 16.521 7.13293C16.2514 6.86946 16.1 6.51211 16.1 6.1395C16.1 5.76689 16.2514 5.40954 16.521 5.14607C16.7906 4.88259 17.1563 4.73457 17.5375 4.73457ZM11.5 6.42049C13.025 6.42049 14.4875 7.01256 15.5659 8.06646C16.6442 9.12036 17.25 10.5498 17.25 12.0402C17.25 13.5306 16.6442 14.96 15.5659 16.0139C14.4875 17.0678 13.025 17.6599 11.5 17.6599C9.97501 17.6599 8.51247 17.0678 7.43414 16.0139C6.3558 14.96 5.75 13.5306 5.75 12.0402C5.75 10.5498 6.3558 9.12036 7.43414 8.06646C8.51247 7.01256 9.97501 6.42049 11.5 6.42049ZM11.5 8.66837C10.585 8.66837 9.70748 9.02361 9.06048 9.65595C8.41348 10.2883 8.05 11.1459 8.05 12.0402C8.05 12.9345 8.41348 13.7921 9.06048 14.4244C9.70748 15.0568 10.585 15.412 11.5 15.412C12.415 15.412 13.2925 15.0568 13.9395 14.4244C14.5865 13.7921 14.95 12.9345 14.95 12.0402C14.95 11.1459 14.5865 10.2883 13.9395 9.65595C13.2925 9.02361 12.415 8.66837 11.5 8.66837Z" fill="#AAAAAA"/>
</svg>
