<svg width="23" height="23" viewBox="0 0 23 23" fill="none" xmlns="http://www.w3.org/2000/svg">
<path d="M16.0448 14.4776L15.4634 15.0766C15.4634 15.0766 14.0796 16.4993 10.3037 12.6144C6.52794 8.72954 7.91176 7.30675 7.91176 7.30675L8.27721 6.92858C9.18059 6.00033 9.2662 4.50878 8.47781 3.41921L6.86783 1.19379C5.89161 -0.154954 4.0069 -0.333463 2.88885 0.816933L0.882755 2.87971C0.329481 3.45094 -0.0410726 4.18878 0.00364931 5.0086C0.118649 7.10708 1.03609 11.6201 6.15227 16.8855C11.579 22.4682 16.6709 22.6903 18.7524 22.4893C19.4117 22.4259 19.9841 22.0794 20.4454 21.6034L22.2598 19.7363C23.4865 18.4762 23.1415 16.3142 21.5724 15.4322L19.1319 14.0584C18.102 13.4805 16.8498 13.6498 16.0448 14.4776Z" fill="#AAAAAA"/>
</svg>
