<svg width="30" height="20" viewBox="0 0 30 20" fill="none" xmlns="http://www.w3.org/2000/svg">
<path d="M28.9286 7C29.2127 7 29.4853 6.89464 29.6862 6.70711C29.8871 6.51957 30 6.26522 30 6V2C30 1.46957 29.7742 0.960859 29.3724 0.585786C28.9705 0.210714 28.4255 0 27.8571 0H2.14286C1.57454 0 1.02949 0.210714 0.627628 0.585786C0.225765 0.960859 0 1.46957 0 2V6C0 6.26522 0.112882 6.51957 0.313814 6.70711C0.514746 6.89464 0.787268 7 1.07143 7C1.92391 7 2.74148 7.31607 3.34427 7.87868C3.94707 8.44129 4.28571 9.20435 4.28571 10C4.28571 10.7956 3.94707 11.5587 3.34427 12.1213C2.74148 12.6839 1.92391 13 1.07143 13C0.787268 13 0.514746 13.1054 0.313814 13.2929C0.112882 13.4804 0 13.7348 0 14V18C0 18.5304 0.225765 19.0391 0.627628 19.4142C1.02949 19.7893 1.57454 20 2.14286 20H27.8571C28.4255 20 28.9705 19.7893 29.3724 19.4142C29.7742 19.0391 30 18.5304 30 18V14C30 13.7348 29.8871 13.4804 29.6862 13.2929C29.4853 13.1054 29.2127 13 28.9286 13C28.0761 13 27.2585 12.6839 26.6557 12.1213C26.0529 11.5587 25.7143 10.7956 25.7143 10C25.7143 9.20435 26.0529 8.44129 26.6557 7.87868C27.2585 7.31607 28.0761 7 28.9286 7ZM2.14286 14.9C3.35388 14.6705 4.44265 14.0573 5.22469 13.1643C6.00673 12.2712 6.43394 11.1534 6.43394 10C6.43394 8.84664 6.00673 7.72875 5.22469 6.83574C4.44265 5.94273 3.35388 5.32952 2.14286 5.1V2H9.64286V18H2.14286V14.9ZM27.8571 14.9V18H11.7857V2H27.8571V5.1C26.6461 5.32952 25.5573 5.94273 24.7753 6.83574C23.9933 7.72875 23.5661 8.84664 23.5661 10C23.5661 11.1534 23.9933 12.2712 24.7753 13.1643C25.5573 14.0573 26.6461 14.6705 27.8571 14.9Z" fill="#D32F2F"/>
</svg>
